<?xml version="1.0" encoding="UTF-8"?>
<svg width="84px" height="84px" viewBox="0 0 84 84" version="1.1" xmlns="http://www.w3.org/2000/svg" xmlns:xlink="http://www.w3.org/1999/xlink">
    <!-- Generator: Sketch 46.2 (44496) - http://www.bohemiancoding.com/sketch -->
    <title>mobile-liquid_damage</title>
    <desc>Created with Sketch.</desc>
    <defs>
        <circle id="path-1" cx="42" cy="42" r="42"></circle>
    </defs>
    <g id="Page-1" stroke="none" stroke-width="1" fill="none" fill-rule="evenodd">
        <g id="Desktop-HD" transform="translate(-781.000000, -469.000000)">
            <g id="mobile-liquid_damage" transform="translate(781.000000, 469.000000)">
                <mask id="mask-2" fill="white">
                    <use xlink:href="#path-1"></use>
                </mask>
                <use id="Mask" fill="#F2F2F2" xlink:href="#path-1"></use>
                <g id="Liquid-Spills" mask="url(#mask-2)" stroke-linecap="round" stroke-linejoin="round">
                    <g transform="translate(36.000000, 58.000000) rotate(29.000000) translate(-36.000000, -58.000000) translate(6.000000, 19.000000)">
                        <g id="Layer_4" transform="translate(14.000000, 0.000000)">
                            <rect id="Rectangle-path" stroke="#B2B2B2" stroke-width="2.5" x="0.09" y="0" width="45.82" height="78" rx="5.21"></rect>
                            <path d="M45.5,65.5 L0.5,65.5" id="Shape" stroke="#B2B2B2" stroke-width="2.5"></path>
                            <path d="M0.5,8.5 L45.5,8.5" id="Shape" stroke="#B2B2B2" stroke-width="2.5"></path>
                        </g>
                        <g id="Layer_5" transform="translate(0.000000, 8.000000)">
                            <path d="M2.56,1.23 C2.19874506,0.934459733 1.69554631,0.884220384 1.28299126,1.10250348 C0.870436206,1.32078658 0.628890144,1.7650708 0.67,2.23 L2.06,13.38 C2.38,15.92 2.06,20.43 3.22,22.72 C10.38,36.65 31.28,21.14 15.57,9.22 C13.36,7.58 6.34,4.45 2.56,1.23 Z" id="Shape" stroke="#B2B2B2" stroke-width="2.5"></path>
                        </g>
                    </g>
                </g>
            </g>
        </g>
    </g>
</svg>