<?xml version="1.0" encoding="UTF-8"?>
<svg width="84px" height="84px" viewBox="0 0 84 84" version="1.1" xmlns="http://www.w3.org/2000/svg" xmlns:xlink="http://www.w3.org/1999/xlink">
    <!-- Generator: Sketch 46.2 (44496) - http://www.bohemiancoding.com/sketch -->
    <title>mobile-comprehensive</title>
    <desc>Created with Sketch.</desc>
    <defs>
        <circle id="path-1" cx="42" cy="42" r="42"></circle>
    </defs>
    <g id="Page-1" stroke="none" stroke-width="1" fill="none" fill-rule="evenodd">
        <g id="Desktop-HD" transform="translate(-1181.000000, -469.000000)">
            <g id="mobile-comprehensive" transform="translate(1181.000000, 469.000000)">
                <mask id="mask-2" fill="white">
                    <use xlink:href="#path-1"></use>
                </mask>
                <use id="Mask" fill="#F2F2F2" xlink:href="#path-1"></use>
                <g id="Complete-Protection" mask="url(#mask-2)" stroke-linecap="round" stroke="#B2B2B2" stroke-width="2.5" stroke-linejoin="round">
                    <g transform="translate(14.000000, 15.750000)" id="Shape">
                        <path d="M0,23.2727273 C3.15796464,10.5185948 14.687067,1.55151515 27.9272727,1.55151515 C41.1674785,1.55151515 52.6965808,10.5185948 55.8545455,23.2727273"></path>
                        <path d="M0,21.7212121 L54.3030303,21.7212121"></path>
                        <path d="M13.1878788,21.7212121 C14.8962273,12.6833077 18.5345093,5.19089197 26.3757576,1.55151515"></path>
                        <path d="M28.7030303,1.55151515 C37.3923382,4.93122397 40.8517643,12.4650074 42.6666667,21.7212121"></path>
                        <path d="M27.1515152,0 L27.1515152,43.3390301 C27.1515152,45.3941483 27.4193109,47.6961712 28.6987796,49.3664086 C31.7561146,53.4258117 37.8782233,50.0925988 38.0121212,45.6991482"></path>
                    </g>
                </g>
            </g>
        </g>
    </g>
</svg>