<svg xmlns="http://www.w3.org/2000/svg" viewBox="0 0 340 220"><defs><style>.cls-1,.cls-2,.cls-6{fill:none;stroke-linecap:round;stroke-linejoin:round;}.cls-1{stroke:#ebebeb;stroke-width:30px;}.cls-2{stroke:#ccc;stroke-width:5px;}.cls-3{fill:#fafafa;}.cls-4{fill:#fcb729;}.cls-5{fill:#fff;}.cls-6{stroke:#fff;stroke-width:1.5px;}.cls-7{fill:#ccc;}</style></defs><title>Mobile Insurance</title><g id="Layer_3" data-name="Layer 3"><path class="cls-1" d="M97.42,46.16c16.92-8.41,36.36-19.72,54.62-25C126.39,39.11,83.12,83.74,83.12,83.74S197.49,43.08,239.58,26.91C186,58.35,121.79,89.36,68.17,120.79c67.19-24.54,104.22-32.32,171.41-56.86C180.69,88.36,143,108.49,93,146.86c30.78-12.77,56.15-18.85,86.93-31.61,28-11.61,86.42-28.08,86.42-28.08s-120.64,51.76-161.5,92.27c36.06-16.05,89.25-27.72,126.69-40.6,12.52-4.31,46.57-18.64,46.57-18.64l-80.22,59.49s-15.51,11.66-22.41,19c25.34-7.67,70.58-27.52,95.22-37"/><path class="cls-2" d="M136.35,164.4c.85,1.77.48,3.78.34,5.69s.07,4.08,1.7,5.35a9,9,0,0,0,4.53,1.35c2.35.26,5.09.41,6.69-1.12a5.93,5.93,0,0,0,1.43-3.92c.24-2.44.24-5.19-1.7-6.94a5.78,5.78,0,0,0-6.33-.66,4.35,4.35,0,0,0-2.08,5.31,3.67,3.67,0,0,0,3.13,2.29c1.43.06,2.87-1.15,2.56-2.39"/><path class="cls-2" d="M175.35,164.09a3.28,3.28,0,0,0-3.71-.11,6.48,6.48,0,0,0-2.43,3c-.95,2.13-1.27,4.72-.09,6.72a6.92,6.92,0,0,0,4.95,3,20.51,20.51,0,0,0,6-.21,5.36,5.36,0,0,0,2.89-1c1.13-1,1.22-2.69,1.23-4.19,0-2.38-.09-5-1.75-6.72a5.4,5.4,0,0,0-5.36-1.2,7.7,7.7,0,0,0-4.3,3.65c-1.08,1.91-1.36,4.61.27,6.08s3.9,1,5.81.29c1.4-.54,2.94-1.57,2.87-3.07a2.75,2.75,0,0,0-2.87-2.27,8,8,0,0,0-3.76,1.37"/><path class="cls-2" d="M212.7,164.24a6.2,6.2,0,0,0-7.75.57,8.54,8.54,0,0,0-2.31,7.76,5.81,5.81,0,0,0,2.39,4,6.53,6.53,0,0,0,2.66.79,11,11,0,0,0,6-.72,6.13,6.13,0,0,0,3.6-4.58,5.38,5.38,0,0,0-2.77-5.21,6.18,6.18,0,0,0-6,.2,5.45,5.45,0,0,0-2.63,3.58,4,4,0,0,0,1.58,4,3.21,3.21,0,0,0,4.14-.51,2.68,2.68,0,0,0-.73-3.92"/></g><g id="Layer_2_copy" data-name="Layer 2 copy"><polygon class="cls-3" points="122.59 19.51 122.59 198.69 232.18 192.77 232.18 19.51 122.59 19.51"/><path class="cls-4" d="M234.94,171q-.07-17.23-.14-34.46-.09-19.84-.18-39.67-.09-19.06-.21-38.11-.08-13.62-.19-27.24c-.13-15.66-.32-23.77-21.67-23.83-22.32-.07-44.67-.15-67,.75-6.74.27-14.5-.2-21,1.95-9.05,3-7.73,15.85-7.45,23.48.43,11.54.29,23.07.76,34.62.87,21.58.31,43.17.29,64.77,0,11.79-.28,24-.19,36,0,6.22.19,12.44.51,18.65.28,5.47-.07,11.63,2.35,16.63,4.44,9.16,18.18,8.56,26.71,8.41,25.38-.46,48.72-.51,74.09-.93l4.07-.51c8,0,9.29-9.15,9.29-18C235,186,235,178.52,234.94,171Zm-6.61,15a.78.78,0,0,1-.22.38l0,0a.87.87,0,0,1-.48.1c-13.09,0-28.72.58-41.8.48-5.48,0-60.65.58-60.61-1.07.28-9.61.12-21.77,0-31.38l-1.59-94.42c-.13-7.87-.27-16.25-.4-24.11-.06-3.65-.65-6.35-.19-10,.53-4.15,5.3-4.39,5.3-4.39s63.73-2,94.18-1.13c1.47,0,4.51-.2,5.25,1.36a3.24,3.24,0,0,1,.23,1.21c.84,14.11.82,26.75.78,40.88-.07,21.75-.3,43.49-.25,65.24,0,2.94.11,39.38.53,52.36A12.64,12.64,0,0,1,228.33,186Z"/><path class="cls-5" d="M170,206.77a8.93,8.93,0,0,0,10.38,1.11c6.9-4.1,4.74-15.8-3.41-16.86C169,190,164.37,201.53,170,206.77Z"/><path class="cls-6" d="M157.34,14.47l36.09,0"/><path class="cls-7" d="M134.62,53.23a4,4,0,0,0,1.92,1C140.29,55,148.17,56,151.25,53c3.91-3.7,3.11-16.15-2.5-17.89A20,20,0,0,0,138.06,35c-4.87,1.35-6.12,5.17-5.8,10C132.43,47.63,132.59,51.41,134.62,53.23Z"/><path class="cls-7" d="M167.74,52.64c2.5,2.55,14.54,3.13,17.08.65A5.4,5.4,0,0,0,186,49.71a39,39,0,0,0-.16-7.22c-.18-1.58-.5-4.62-1.56-5.82-3.09-3.51-15.57-2-17.33,2.28C165.86,41.79,165.59,50.45,167.74,52.64Z"/><path class="cls-7" d="M198.86,46.09c-.25,2.8.24,6.06,2.62,7.55a9.2,9.2,0,0,0,4.93.93h7.52a5,5,0,0,0,3-.64c3-2.19,3.16-8,2.73-11-.63-4.52-1.17-7.67-6.47-8.16-3.32-.31-9.24-.42-12,2C198.85,38.87,199.12,43.12,198.86,46.09Z"/><path class="cls-7" d="M134.62,82.11a4,4,0,0,0,1.92,1c3.75.78,11.63,1.76,14.71-1.15,3.91-3.7,3.11-16.15-2.5-17.89a20,20,0,0,0-10.69-.14c-4.87,1.35-6.12,5.17-5.8,10C132.43,76.51,132.59,80.29,134.62,82.11Z"/><path class="cls-7" d="M167.74,81.52c2.5,2.55,14.54,3.13,17.08.65A5.4,5.4,0,0,0,186,78.59a39,39,0,0,0-.16-7.22c-.18-1.58-.5-4.62-1.56-5.82-3.09-3.51-15.57-2-17.33,2.28C165.86,70.66,165.59,79.32,167.74,81.52Z"/><path class="cls-7" d="M198.86,75c-.25,2.8.24,6.06,2.62,7.55a9.2,9.2,0,0,0,4.93.93h7.52a5,5,0,0,0,3-.64c3-2.19,3.16-8,2.73-11-.63-4.52-1.17-7.67-6.47-8.16-3.32-.31-9.24-.42-12,2C198.85,67.74,199.12,72,198.86,75Z"/><path class="cls-7" d="M134.62,111a4,4,0,0,0,1.92,1c3.75.78,11.63,1.76,14.71-1.15,3.91-3.7,3.11-16.15-2.5-17.89a20,20,0,0,0-10.69-.14c-4.87,1.35-6.12,5.17-5.8,10C132.43,105.38,132.59,109.16,134.62,111Z"/><path class="cls-7" d="M167.74,110.39c2.5,2.55,14.54,3.13,17.08.65a5.4,5.4,0,0,0,1.22-3.58,39,39,0,0,0-.16-7.22c-.18-1.58-.5-4.62-1.56-5.82-3.09-3.51-15.57-2-17.33,2.28C165.86,99.54,165.59,108.2,167.74,110.39Z"/><path class="cls-4" d="M200.74,177.77c2.5,2.55,14.54,3.13,17.08.65a5.4,5.4,0,0,0,1.22-3.58,39,39,0,0,0-.16-7.22c-.18-1.58-.5-4.62-1.56-5.82-3.09-3.51-15.57-2-17.33,2.28C198.86,166.91,198.59,175.57,200.74,177.77Z"/><path class="cls-4" d="M167.74,177.77c2.5,2.55,14.54,3.13,17.08.65a5.4,5.4,0,0,0,1.22-3.58,39,39,0,0,0-.16-7.22c-.18-1.58-.5-4.62-1.56-5.82-3.09-3.51-15.57-2-17.33,2.28C165.86,166.91,165.59,175.57,167.74,177.77Z"/><path class="cls-7" d="M198.86,103.84c-.25,2.8.24,6.06,2.62,7.55a9.2,9.2,0,0,0,4.93.93h7.52a5,5,0,0,0,3-.64c3-2.19,3.16-8,2.73-11-.63-4.52-1.17-7.67-6.47-8.16-3.32-.31-9.24-.42-12,2C198.85,96.62,199.12,100.87,198.86,103.84Z"/><path class="cls-4" d="M132.86,171.34c-.25,2.8.24,6.06,2.62,7.55a9.2,9.2,0,0,0,4.93.93h7.52a5,5,0,0,0,3-.64c3-2.19,3.16-8,2.73-11-.63-4.52-1.17-7.67-6.47-8.16-3.32-.31-9.24-.42-12,2C132.85,164.12,133.12,168.38,132.86,171.34Z"/></g></svg>